<?xml version="1.0" standalone="no"?>
<!DOCTYPE svg PUBLIC "-//W3C//DTD SVG 20010904//EN"
 "http://www.w3.org/TR/2001/REC-SVG-20010904/DTD/svg10.dtd">
<svg version="1.0" xmlns="http://www.w3.org/2000/svg"
 width="500.000000pt" height="500.000000pt" viewBox="0 0 500.000000 500.000000"
 preserveAspectRatio="xMidYMid meet">
<metadata>
Created by potrace 1.14, written by Peter Selinger 2001-2017
</metadata>
<g transform="translate(0.000000,500.000000) scale(0.100000,-0.100000)"
fill="#000000" stroke="none">
<path d="M250 2500 l0 -1500 2250 0 2250 0 0 1500 0 1500 -2250 0 -2250 0 0
-1500z m2180 551 c179 -56 243 -226 143 -374 -29 -42 -128 -112 -173 -122 -16
-4 -30 -10 -30 -14 0 -8 206 -191 215 -191 3 0 5 52 5 115 l0 115 146 0 147 0
-6 -92 c-6 -105 -31 -186 -76 -252 -17 -25 -31 -46 -31 -49 0 -2 63 -59 140
-126 77 -67 140 -126 140 -131 0 -6 -70 -10 -183 -10 l-183 0 -35 36 c-51 53
-65 58 -97 36 -91 -64 -199 -94 -337 -93 -208 1 -353 76 -417 216 -34 75 -33
201 4 270 28 53 79 106 140 147 l37 24 -49 42 c-122 105 -135 267 -30 373 48
48 122 83 210 99 75 15 247 4 320 -19z m-1510 -247 l5 -251 200 254 200 253
167 0 c93 0 168 -2 168 -5 0 -3 -99 -122 -220 -265 l-220 -260 223 -293 c123
-160 227 -298 231 -304 6 -10 -31 -13 -173 -13 l-180 0 -167 226 -167 226 -33
-39 -33 -38 -1 -187 0 -188 -150 0 -150 0 0 563 c0 310 3 567 7 571 4 3 70 5
147 4 l141 -3 5 -251z m2597 244 c5 -7 63 -133 129 -280 65 -148 121 -268 124
-268 3 0 56 116 119 258 63 141 120 267 128 280 14 22 16 22 181 20 l167 -3 3
-567 2 -568 -150 0 -150 0 0 373 -1 372 -103 -240 -102 -240 -101 -3 -101 -3
-103 243 -104 242 -3 -372 -2 -372 -140 0 -140 0 0 563 c0 310 3 567 7 570 3
4 79 7 168 7 118 0 165 -3 172 -12z"/>
<path d="M2148 2880 c-27 -27 -30 -36 -26 -75 3 -24 15 -57 27 -73 29 -42 98
-95 112 -87 6 4 24 28 40 53 23 36 29 58 29 100 0 46 -4 58 -29 83 -24 24 -38
29 -76 29 -39 0 -52 -5 -77 -30z"/>
<path d="M2108 2407 c-19 -29 -38 -85 -38 -111 0 -77 54 -154 125 -182 59 -22
180 -16 223 12 l30 19 -135 120 c-74 66 -148 130 -163 142 l-28 23 -14 -23z"/>
</g>
</svg>
